# Blender 5.1.0
# www.blender.org
mtllib bin.mtl
o Cube
v -0.988290 0.000000 1.006577
v -0.988290 2.427074 1.006577
v -0.988290 0.000000 -0.975561
v -0.988290 2.427074 -0.975561
v 0.977572 0.000000 1.006577
v 0.977572 2.427074 1.006577
v 0.977572 0.000000 -0.975561
v 0.977572 2.427074 -0.975561
v -0.005370 2.427074 1.006577
v -0.005370 0.000000 1.006577
v -0.005370 2.427074 -0.975561
v -0.005370 0.000000 -0.975561
v 0.284630 3.054386 -0.282619
v 0.977572 2.361444 -0.975561
v 0.463977 3.030774 -0.461965
v 0.631101 2.961549 -0.629090
v 0.774614 2.851428 -0.772603
v 0.884736 2.707915 -0.882724
v 0.953961 2.540791 -0.951949
v -0.988290 2.361444 -0.975561
v -0.295348 3.054386 -0.282619
v -0.964678 2.540791 -0.951949
v -0.895453 2.707915 -0.882724
v -0.785332 2.851428 -0.772603
v -0.641819 2.961549 -0.629090
v -0.474695 3.030774 -0.461965
v -0.988290 2.361444 1.006577
v -0.295348 3.054386 0.313636
v -0.964678 2.540791 0.982966
v -0.895453 2.707915 0.913741
v -0.785332 2.851428 0.803620
v -0.641819 2.961549 0.660107
v -0.474695 3.030774 0.492982
v 0.977572 2.361444 1.006577
v 0.284630 3.054386 0.313636
v 0.953961 2.540791 0.982966
v 0.884736 2.707915 0.913741
v 0.774614 2.851428 0.803620
v 0.631101 2.961549 0.660107
v 0.463977 3.030774 0.492982
v -0.005362 3.054386 -0.282619
v -0.005364 3.030774 -0.461965
v -0.005366 2.961549 -0.629090
v -0.005367 2.851428 -0.772603
v -0.005369 2.707915 -0.882724
v -0.005369 2.540791 -0.951949
v -0.005370 2.361444 -0.975561
v -0.005362 3.054386 0.313636
v -0.005364 3.030774 0.492982
v -0.005367 2.851428 0.279118
v -0.395350 2.851428 0.279118
v -0.005369 2.707915 0.913741
v -0.005369 2.540791 0.982966
v -0.005370 2.361444 1.006577
v 0.486101 2.427074 -0.975561
v 0.486101 0.000000 1.006577
v 0.384623 2.851428 -0.772603
v 0.312868 2.961549 -0.629090
v 0.486101 2.427074 1.006577
v 0.229307 3.030774 -0.461965
v 0.486101 0.000000 -0.975561
v 0.139634 3.054386 -0.282619
v 0.229306 3.030774 0.492982
v -0.005366 2.961549 0.135606
v -0.323592 2.961549 0.135606
v 0.439683 2.707915 0.913741
v 0.474296 2.540791 0.982966
v 0.486101 2.361444 1.006577
v 0.439683 2.707915 -0.882724
v 0.474296 2.540791 -0.951949
v 0.486101 2.361444 -0.975561
v 0.139634 3.054386 0.313636
v 0.731837 2.427074 -0.975561
v 0.731837 0.000000 1.006577
v 0.212132 3.054386 -0.282619
v 0.346642 3.030774 0.492982
v 0.471984 2.961549 0.660107
v 0.579619 2.851428 0.803620
v 0.662210 2.707915 0.913741
v 0.714128 2.540791 0.982966
v 0.731837 2.361444 1.006577
v 0.579619 2.851428 -0.772603
v 0.471985 2.961549 -0.629090
v 0.731837 2.427074 1.006577
v 0.346642 3.030774 -0.461965
v 0.731837 0.000000 -0.975561
v 0.662210 2.707915 -0.882724
v 0.714128 2.540791 -0.951949
v 0.731837 2.361444 -0.975561
v 0.212132 3.054386 0.313636
v -0.496830 0.000000 -0.975561
v -0.496830 2.427074 1.006577
v -0.150355 3.054386 -0.282619
v -0.496830 0.000000 1.006577
v -0.496830 2.427074 -0.975561
v -0.240029 3.030774 -0.461965
v -0.323592 2.961549 -0.629090
v -0.395350 2.851428 -0.772603
v -0.450411 2.707915 -0.882724
v -0.485024 2.540791 -0.951949
v -0.496830 2.361444 -0.975561
v -0.150355 3.054386 0.313636
v -0.240029 3.030774 0.492982
v -0.005364 3.030774 -0.031519
v -0.240029 3.030774 -0.031519
v -0.450411 2.707915 0.913741
v -0.485024 2.540791 0.982966
v -0.496830 2.361444 1.006577
v -0.742560 0.000000 -0.975561
v -0.742560 2.427074 1.006577
v -0.357362 3.030774 -0.461965
v -0.482706 2.961549 -0.629090
v -0.590341 2.851428 -0.772603
v -0.672932 2.707915 -0.882724
v -0.724851 2.540791 -0.951949
v -0.742560 2.361444 -0.975561
v -0.222852 3.054386 0.313636
v -0.222851 3.054386 -0.282619
v -0.742560 0.000000 1.006577
v -0.742560 2.427074 -0.975561
v -0.357362 3.030774 0.492982
v -0.482706 2.961549 0.660107
v -0.590341 2.851428 0.803620
v -0.672932 2.707915 0.913741
v -0.724851 2.540791 0.982966
v -0.742560 2.361444 1.006577
v -0.240029 3.030774 0.302066
v -0.005364 3.030774 0.302066
v -0.450411 2.707915 0.722824
v -0.005369 2.707915 0.722824
v 0.229306 3.030774 0.302066
v 0.439683 2.707915 0.722824
v 0.346642 3.030774 0.302066
v 0.471984 2.961549 0.469190
v 0.579619 2.851428 0.612703
v 0.662210 2.707915 0.722824
v -0.357362 3.030774 0.302066
v -0.482706 2.961549 0.469190
v -0.590341 2.851428 0.612703
v -0.672932 2.707915 0.722824
v -0.450411 2.707915 0.389240
v -0.005369 2.707915 0.389240
v 0.229306 3.030774 -0.031519
v 0.312868 2.961549 0.135606
v 0.384623 2.851428 0.279118
v 0.439683 2.707915 0.389240
v 0.346642 3.030774 -0.031519
v 0.471984 2.961549 0.135606
v 0.579619 2.851428 0.279118
v 0.662210 2.707915 0.389240
v -0.357362 3.030774 -0.031519
v -0.482706 2.961549 0.135606
v -0.590341 2.851428 0.279118
v -0.672932 2.707915 0.389240
vn -1.0000 -0.0000 -0.0000
vn -0.0000 -0.0000 -1.0000
vn 1.0000 -0.0000 -0.0000
vn -0.0000 -0.0000 1.0000
vn -0.0000 -1.0000 -0.0000
vn -0.0000 1.0000 -0.0000
vn -0.0000 0.3827 0.9239
vn -0.0000 0.1305 0.9914
vn -0.0000 0.9914 -0.1305
vn -0.0000 0.9239 -0.3827
vn -0.0000 0.7934 -0.6088
vn -0.0000 0.6088 -0.7934
vn -0.0000 0.3827 -0.9239
vn -0.0000 0.1305 -0.9914
vn -0.1305 0.9914 -0.0000
vn -0.3827 0.9239 -0.0000
vn -0.6088 0.7934 -0.0000
vn -0.7934 0.6088 -0.0000
vn -0.9239 0.3827 -0.0000
vn -0.9914 0.1305 -0.0000
vn -0.0000 0.9914 0.1305
vn -0.0000 0.9239 0.3827
vn -0.0000 0.7934 0.6088
vn -0.0000 0.6088 0.7934
vn 0.1305 0.9914 -0.0000
vn 0.3827 0.9239 -0.0000
vn 0.6088 0.7934 -0.0000
vn 0.7934 0.6088 -0.0000
vn 0.9239 0.3827 -0.0000
vn 0.9914 0.1305 -0.0000
vn -0.4835 -0.8754 -0.0000
vn 0.4835 -0.8754 -0.0000
vn -0.7151 -0.6990 -0.0000
vn 0.7151 -0.6990 -0.0000
vn -0.8667 -0.4988 -0.0000
vn 0.8667 -0.4988 -0.0000
vt 0.375000 0.000000
vt 0.625000 0.000000
vt 0.625000 0.250000
vt 0.375000 0.250000
vt 0.375000 0.468750
vt 0.625000 0.468750
vt 0.625000 0.500000
vt 0.375000 0.500000
vt 0.625000 0.750000
vt 0.375000 0.750000
vt 0.375000 0.968750
vt 0.625000 0.968750
vt 0.625000 1.000000
vt 0.375000 1.000000
vt 0.343750 0.500000
vt 0.343750 0.750000
vt 0.812501 0.500000
vt 0.812501 0.500000
vt 0.750001 0.500000
vt 0.750001 0.500000
vt 0.731561 0.587398
vt 0.750000 0.587398
vt 0.750000 0.662602
vt 0.731561 0.662602
vt 0.687501 0.750000
vt 0.687501 0.750000
vt 0.750001 0.750000
vt 0.690452 0.744145
vt 0.750001 0.744145
vt 0.750001 0.748511
vt 0.688251 0.748511
vt 0.722342 0.587398
vt 0.713122 0.587398
vt 0.690314 0.564778
vt 0.705236 0.564778
vt 0.669061 0.543699
vt 0.689296 0.543699
vt 0.637905 0.512799
vt 0.665929 0.512799
vt 0.630903 0.505855
vt 0.660678 0.505855
vt 0.626501 0.501489
vt 0.657376 0.501489
vt 0.656250 0.500000
vt 0.786878 0.662602
vt 0.786878 0.587398
vt 0.809686 0.564778
vt 0.809686 0.685222
vt 0.830939 0.543699
vt 0.830939 0.706301
vt 0.862095 0.512799
vt 0.862095 0.737201
vt 0.869097 0.505855
vt 0.869097 0.744145
vt 0.873499 0.501489
vt 0.873499 0.748511
vt 0.875000 0.500000
vt 0.875000 0.750000
vt 0.777659 0.662602
vt 0.794764 0.685222
vt 0.810704 0.706301
vt 0.834071 0.737201
vt 0.839323 0.744145
vt 0.842624 0.748511
vt 0.843750 0.750000
vt 0.713122 0.662602
vt 0.690314 0.685222
vt 0.669061 0.706301
vt 0.637905 0.737201
vt 0.630903 0.744145
vt 0.626501 0.748511
vt 0.777659 0.587398
vt 0.809549 0.744145
vt 0.689296 0.706301
vt 0.705236 0.685222
vt 0.720158 0.685222
vt 0.750001 0.685222
vt 0.811750 0.501489
vt 0.750001 0.501489
vt 0.809549 0.505855
vt 0.750001 0.505855
vt 0.806048 0.512799
vt 0.750001 0.512799
vt 0.790470 0.543699
vt 0.750001 0.543699
vt 0.779843 0.564778
vt 0.750001 0.564778
vt 0.768439 0.587398
vt 0.187499 0.500000
vt 0.249999 0.500000
vt 0.249999 0.750000
vt 0.187499 0.750000
vt 0.375000 0.812501
vt 0.625000 0.812501
vt 0.625000 0.875001
vt 0.375000 0.875001
vt 0.375000 0.312499
vt 0.625000 0.312499
vt 0.625000 0.374999
vt 0.375000 0.374999
vt 0.375000 0.781250
vt 0.625000 0.781250
vt 0.722342 0.662602
vt 0.665929 0.737201
vt 0.687501 0.500000
vt 0.687501 0.500000
vt 0.688251 0.501489
vt 0.690452 0.505855
vt 0.693953 0.512799
vt 0.709531 0.543699
vt 0.720158 0.564778
vt 0.657376 0.748511
vt 0.656250 0.750000
vt 0.660678 0.744145
vt 0.656250 0.750000
vt 0.312499 0.500000
vt 0.312499 0.750000
vt 0.625000 0.437499
vt 0.375000 0.437499
vt 0.375000 0.281250
vt 0.625000 0.281250
vt 0.156250 0.500000
vt 0.156250 0.750000
vt 0.794764 0.564778
vt 0.810704 0.543699
vt 0.834071 0.512799
vt 0.839323 0.505855
vt 0.842624 0.501489
vt 0.843750 0.500000
vt 0.812501 0.750000
vt 0.768439 0.662602
vt 0.811750 0.748511
vt 0.779843 0.685222
vt 0.843750 0.500000
vt 0.625000 0.937501
vt 0.375000 0.937501
vt 0.125000 0.500000
vt 0.125000 0.750000
vt 0.693953 0.737201
vt 0.750001 0.737201
vt 0.709531 0.706301
vt 0.750001 0.706301
vt 0.806048 0.737201
vt 0.790470 0.706301
s 0
f 1/1/1 2/2/1 4/3/1 3/4/1
f 86/5/2 73/6/2 8/7/2 7/8/2
f 7/8/3 8/7/3 6/9/3 5/10/3
f 119/11/4 110/12/4 2/13/4 1/14/4
f 86/15/5 7/8/5 5/10/5 74/16/5
f 95/17/4 101/18/4 47/19/4 11/20/4
f 62/21/6 41/22/6 48/23/6 72/24/6
f 59/25/2 68/26/2 54/27/2 9/27/2
f 66/28/7 52/29/7 53/30/7 67/31/7
f 67/31/8 53/30/8 54/27/8 68/26/8
f 75/32/9 13/33/9 15/34/9 85/35/9
f 85/35/10 15/34/10 16/36/10 83/37/10
f 83/37/11 16/36/11 17/38/11 82/39/11
f 82/39/12 17/38/12 18/40/12 87/41/12
f 87/41/13 18/40/13 19/42/13 88/43/13
f 88/43/14 19/42/14 14/7/14 89/44/14
f 28/45/15 21/46/15 26/47/15 33/48/15
f 33/48/16 26/47/16 25/49/16 32/50/16
f 32/50/17 25/49/17 24/51/17 31/52/17
f 31/52/18 24/51/18 23/53/18 30/54/18
f 30/54/19 23/53/19 22/55/19 29/56/19
f 29/56/20 22/55/20 20/57/20 27/58/20
f 117/59/21 28/45/21 33/48/21 121/60/21
f 121/60/22 33/48/22 32/50/22 122/61/22
f 122/61/23 32/50/23 31/52/23 123/62/23
f 123/62/24 31/52/24 30/54/24 124/63/24
f 124/63/7 30/54/7 29/56/7 125/64/7
f 125/64/8 29/56/8 27/58/8 126/65/8
f 13/33/25 35/66/25 40/67/25 15/34/25
f 15/34/26 40/67/26 39/68/26 16/36/26
f 16/36/27 39/68/27 38/69/27 17/38/27
f 17/38/28 38/69/28 37/70/28 18/40/28
f 18/40/29 37/70/29 36/71/29 19/42/29
f 19/42/30 36/71/30 34/9/30 14/7/30
f 73/44/4 89/44/4 14/7/4 8/7/4
f 118/72/6 21/46/6 28/45/6 117/59/6
f 8/7/1 14/7/1 34/9/1 6/9/1
f 2/58/3 27/58/3 20/57/3 4/57/3
f 110/65/2 126/65/2 27/58/2 2/58/2
f 106/73/6 52/29/6 130/29/6 129/73/6
f 77/74/31 76/75/31 133/75/31 134/74/31
f 63/76/5 49/77/5 128/77/5 131/76/5
f 72/24/21 48/23/21 49/77/21 63/76/21
f 100/78/14 46/79/14 47/19/14 101/18/14
f 99/80/13 45/81/13 46/79/13 100/78/13
f 98/82/12 44/83/12 45/81/12 99/80/12
f 97/84/11 43/85/11 44/83/11 98/82/11
f 96/86/10 42/87/10 43/85/10 97/84/10
f 93/88/9 41/22/9 42/87/9 96/86/9
f 91/89/5 12/90/5 10/91/5 94/92/5
f 56/93/4 59/94/4 9/95/4 10/96/4
f 91/97/2 95/98/2 11/99/2 12/100/2
f 74/101/4 84/102/4 59/94/4 56/93/4
f 90/103/21 72/24/21 63/76/21 76/75/21
f 121/60/32 122/61/32 138/61/32 137/60/32
f 78/104/33 77/74/33 134/74/33 135/104/33
f 122/61/34 123/62/34 139/62/34 138/61/34
f 11/20/4 47/19/4 71/105/4 55/106/4
f 46/79/14 70/107/14 71/105/14 47/19/14
f 45/81/13 69/108/13 70/107/13 46/79/13
f 44/83/12 57/109/12 69/108/12 45/81/12
f 43/85/11 58/110/11 57/109/11 44/83/11
f 42/87/10 60/111/10 58/110/10 43/85/10
f 41/22/9 62/21/9 60/111/9 42/87/9
f 80/112/8 67/31/8 68/26/8 81/113/8
f 79/114/7 66/28/7 67/31/7 80/112/7
f 84/115/2 81/113/2 68/26/2 59/25/2
f 75/32/6 62/21/6 72/24/6 90/103/6
f 12/90/5 61/116/5 56/117/5 10/91/5
f 12/100/2 11/99/2 55/118/2 61/119/2
f 13/33/6 75/32/6 90/103/6 35/66/6
f 6/9/2 34/9/2 81/113/2 84/115/2
f 37/70/7 79/114/7 80/112/7 36/71/7
f 36/71/8 80/112/8 81/113/8 34/9/8
f 38/69/24 78/104/24 79/114/24 37/70/24
f 39/68/23 77/74/23 78/104/23 38/69/23
f 40/67/22 76/75/22 77/74/22 39/68/22
f 35/66/21 90/103/21 76/75/21 40/67/21
f 5/10/4 6/9/4 84/102/4 74/101/4
f 55/106/4 71/105/4 89/44/4 73/44/4
f 70/107/14 88/43/14 89/44/14 71/105/14
f 69/108/13 87/41/13 88/43/13 70/107/13
f 57/109/12 82/39/12 87/41/12 69/108/12
f 58/110/11 83/37/11 82/39/11 57/109/11
f 60/111/10 85/35/10 83/37/10 58/110/10
f 62/21/9 75/32/9 85/35/9 60/111/9
f 61/116/5 86/15/5 74/16/5 56/117/5
f 61/119/2 55/118/2 73/6/2 86/5/2
f 109/120/2 120/121/2 95/98/2 91/97/2
f 109/122/5 91/89/5 94/92/5 119/123/5
f 118/72/9 93/88/9 96/86/9 111/124/9
f 111/124/10 96/86/10 97/84/10 112/125/10
f 112/125/11 97/84/11 98/82/11 113/126/11
f 113/126/12 98/82/12 99/80/12 114/127/12
f 114/127/13 99/80/13 100/78/13 115/128/13
f 115/128/14 100/78/14 101/18/14 116/129/14
f 9/27/2 54/27/2 108/130/2 92/130/2
f 41/22/6 93/88/6 102/131/6 48/23/6
f 53/30/8 107/132/8 108/130/8 54/27/8
f 52/29/7 106/73/7 107/132/7 53/30/7
f 79/114/35 78/104/35 135/104/35 136/114/35
f 123/62/36 124/63/36 140/63/36 139/62/36
f 124/63/6 106/73/6 129/73/6 140/63/6
f 48/23/21 102/131/21 103/133/21 49/77/21
f 120/134/4 116/129/4 101/18/4 95/17/4
f 10/96/4 9/95/4 92/135/4 94/136/4
f 4/57/4 20/57/4 116/129/4 120/134/4
f 22/55/14 115/128/14 116/129/14 20/57/14
f 23/53/13 114/127/13 115/128/13 22/55/13
f 24/51/12 113/126/12 114/127/12 23/53/12
f 25/49/11 112/125/11 113/126/11 24/51/11
f 26/47/10 111/124/10 112/125/10 25/49/10
f 21/46/9 118/72/9 111/124/9 26/47/9
f 3/137/5 109/122/5 119/123/5 1/138/5
f 3/4/2 4/3/2 120/121/2 109/120/2
f 92/130/2 108/130/2 126/65/2 110/65/2
f 93/88/6 118/72/6 117/59/6 102/131/6
f 107/132/8 125/64/8 126/65/8 108/130/8
f 106/73/7 124/63/7 125/64/7 107/132/7
f 49/77/5 103/133/5 127/133/5 128/77/5
f 66/28/6 79/114/6 136/114/6 132/28/6
f 52/29/6 66/28/6 132/28/6 130/29/6
f 102/131/21 117/59/21 121/60/21 103/133/21
f 94/136/4 92/135/4 110/12/4 119/11/4
f 127/133/5 137/60/5 151/60/5 105/133/5
f 139/62/36 140/63/36 154/63/36 153/62/36
f 134/74/31 133/75/31 147/75/31 148/74/31
f 135/104/33 134/74/33 148/74/33 149/104/33
f 136/114/35 135/104/35 149/104/35 150/114/35
f 129/73/6 130/29/6 142/29/6 141/73/6
f 130/29/6 132/28/6 146/28/6 142/29/6
f 132/28/6 136/114/6 150/114/6 146/28/6
f 140/63/6 129/73/6 141/73/6 154/63/6
f 137/60/32 138/61/32 152/61/32 151/60/32
f 128/77/5 127/133/5 105/133/5 104/77/5
f 131/76/5 128/77/5 104/77/5 143/76/5
f 76/75/5 63/76/5 131/76/5 133/75/5
f 103/133/5 121/60/5 137/60/5 127/133/5
f 145/139/24 50/140/24 142/29/24 146/28/24
f 144/141/23 64/142/23 50/140/23 145/139/23
f 143/76/22 104/77/22 64/142/22 144/141/22
f 147/75/22 143/76/22 144/141/22 148/74/22
f 148/74/23 144/141/23 145/139/23 149/104/23
f 149/104/24 145/139/24 146/28/24 150/114/24
f 50/140/24 51/143/24 141/73/24 142/29/24
f 64/142/23 65/144/23 51/143/23 50/140/23
f 104/77/22 105/133/22 65/144/22 64/142/22
f 51/143/24 153/62/24 154/63/24 141/73/24
f 65/144/23 152/61/23 153/62/23 51/143/23
f 105/133/22 151/60/22 152/61/22 65/144/22
f 133/75/5 131/76/5 143/76/5 147/75/5
f 138/61/34 139/62/34 153/62/34 152/61/34
