# Blender 5.1.0
# www.blender.org
mtllib braai.mtl
o BraaiStand
v 1.000000 2.533633 -1.000000
v 1.000000 0.533633 -1.000000
v 1.000000 2.533633 4.199634
v 1.000000 0.533633 4.199634
v -1.000000 2.533633 -1.000000
v -1.000000 0.533633 -1.000000
v -1.000000 2.533633 4.199634
v -1.000000 0.533633 4.199634
v -1.000000 0.533633 1.599817
v 1.000000 2.533633 1.599817
v -1.000000 2.533633 1.599817
v 1.000000 0.533633 1.599817
v -1.000000 0.533633 2.899725
v 1.000000 2.533633 2.899725
v -1.000000 2.533633 2.899725
v 1.000000 0.533633 2.899725
v -1.000000 0.533633 3.549679
v 1.000000 2.533633 3.549679
v -1.000000 2.533633 3.549679
v 1.000000 0.533633 3.549679
v -1.000000 2.533633 0.299908
v 1.000000 0.533633 0.299908
v -1.000000 0.533633 0.299908
v 1.000000 2.533633 0.299908
v -1.000000 2.533633 -0.350046
v 1.000000 0.533633 -0.350046
v -1.000000 0.533633 -0.350046
v 1.000000 2.533633 -0.350046
v -1.000000 -1.566328 3.549679
v -1.000000 -1.566328 4.199634
v 1.000000 -1.566328 -1.000000
v -1.000000 -1.566328 -1.000000
v 1.000000 -1.566328 4.199634
v 1.000000 -1.566328 -0.350046
v 1.000000 -1.566328 3.549679
v -1.000000 -1.566328 -0.350046
v 0.000000 0.533633 -1.000000
v 0.000000 2.533633 4.199634
v 0.000000 0.533633 4.199634
v 0.000000 2.533633 -1.000000
v 0.000000 0.533633 1.599817
v 0.000000 0.533633 2.899725
v 0.000000 0.533633 3.549679
v 0.000000 0.533633 0.299908
v 0.000000 0.533633 -0.350046
v 0.000000 0.199719 -1.000000
v 0.000000 0.199719 4.199634
v 0.000000 0.199719 3.549679
v 0.000000 0.199719 -0.350046
v -0.500000 0.533633 -1.000000
v -0.500000 2.533633 4.199634
v -0.500000 0.533633 1.599817
v -0.500000 0.533633 2.899725
v -0.500000 0.533633 3.549679
v -0.500000 0.533633 0.299908
v -0.500000 0.533633 -0.350046
v -0.500000 0.199719 -1.000000
v -0.500000 0.199719 3.549679
v -0.500000 0.199719 -0.350046
v -0.500000 0.533633 4.199634
v -0.500000 2.533633 -1.000000
v -0.500000 0.199719 4.199634
v -0.750000 0.533633 -1.000000
v -0.750000 2.533633 4.199634
v -0.750000 0.533633 1.599817
v -0.750000 0.533633 2.899725
v -0.750000 0.533633 3.549679
v -0.750000 0.533633 0.299908
v -0.750000 0.533633 -0.350046
v -0.750000 -1.566328 -1.000000
v -0.750000 -1.566328 3.549679
v -0.750000 -1.566328 -0.350046
v -0.750000 0.533633 4.199634
v -0.750000 2.533633 -1.000000
v -0.750000 2.533633 1.599817
v -0.750000 2.533633 2.899725
v -0.750000 2.533633 3.549679
v -0.750000 2.533633 0.299908
v -0.750000 2.533633 -0.350046
v -0.750000 -1.566328 4.199634
v 0.500000 0.533633 4.199634
v 0.500000 2.533633 -1.000000
v 0.500000 0.199719 4.199634
v 0.500000 0.533633 -1.000000
v 0.500000 2.533633 4.199634
v 0.500000 0.533633 1.599817
v 0.500000 0.533633 2.899725
v 0.500000 0.533633 3.549679
v 0.500000 0.533633 0.299908
v 0.500000 0.533633 -0.350046
v 0.500000 0.199719 -1.000000
v 0.500000 0.199719 3.549679
v 0.500000 0.199719 -0.350046
v 0.750000 0.533633 4.199634
v 0.750000 2.533633 -1.000000
v 0.750000 2.533633 1.599817
v 0.750000 2.533633 2.899725
v 0.750000 2.533633 3.549679
v 0.750000 2.533633 0.299908
v 0.750000 2.533633 -0.350046
v 0.750000 -1.566328 4.199634
v 0.750000 0.533633 -1.000000
v 0.750000 2.533633 4.199634
v 0.750000 0.533633 1.599817
v 0.750000 0.533633 2.899725
v 0.750000 0.533633 3.549679
v 0.750000 0.533633 0.299908
v 0.750000 0.533633 -0.350046
v 0.750000 -1.566328 -1.000000
v 0.750000 -1.566328 3.549679
v 0.750000 -1.566328 -0.350046
v -1.000000 2.533633 -0.675023
v 1.000000 0.533633 -0.675023
v -1.000000 0.533633 -0.675023
v 1.000000 2.533633 -0.675023
v 1.000000 -1.566328 -0.675023
v -1.000000 -1.566328 -0.675023
v 0.000000 0.199719 -0.675023
v 0.000000 2.533633 -0.675023
v -0.500000 0.199719 -0.675023
v -0.500000 2.533633 -0.675023
v -0.750000 -1.566328 -0.675023
v -0.750000 2.533633 -0.675023
v 0.500000 2.533633 -0.675023
v 0.500000 0.199719 -0.675023
v 0.750000 2.533633 -0.675023
v 0.750000 -1.566328 -0.675023
v -1.000000 0.533633 3.874656
v 1.000000 2.533633 3.874656
v -1.000000 2.533633 3.874656
v 1.000000 0.533633 3.874656
v -1.000000 -1.566328 3.874656
v 1.000000 -1.566328 3.874656
v 0.000000 0.199719 3.874656
v 0.000000 2.533633 3.874656
v -0.500000 0.199719 3.874656
v -0.500000 2.533633 3.874656
v -0.750000 -1.566328 3.874656
v -0.750000 2.533633 3.874656
v 0.500000 2.533633 3.874656
v 0.500000 0.199719 3.874656
v 0.750000 2.533633 3.874656
v 0.750000 -1.566328 3.874656
v -0.500000 2.310382 1.599817
v 0.000000 2.310382 1.599817
v -0.500000 2.310382 2.899725
v 0.000000 2.310382 2.899725
v -0.500000 2.310382 3.549679
v 0.000000 2.310382 3.549679
v -0.500000 2.310382 0.299908
v 0.000000 2.310382 0.299908
v -0.500000 2.310382 -0.350046
v 0.000000 2.310382 -0.350046
v 0.000000 2.310382 -0.675023
v -0.750000 2.310382 1.599817
v -0.750000 2.310382 2.899725
v -0.750000 2.310382 3.549679
v -0.750000 2.310382 0.299908
v -0.750000 2.310382 -0.350046
v -0.500000 2.310382 -0.675023
v -0.750000 2.310382 -0.675023
v 0.500000 2.310382 1.599817
v 0.500000 2.310382 2.899725
v 0.500000 2.310382 3.549679
v 0.500000 2.310382 0.299908
v 0.500000 2.310382 -0.350046
v 0.500000 2.310382 -0.675023
v 0.750000 2.310382 1.599817
v 0.750000 2.310382 2.899725
v 0.750000 2.310382 3.549679
v 0.750000 2.310382 0.299908
v 0.750000 2.310382 -0.350046
v 0.750000 2.310382 -0.675023
v 0.000000 2.310382 3.874656
v -0.500000 2.310382 3.874656
v -0.750000 2.310382 3.874656
v 0.500000 2.310382 3.874656
v 0.750000 2.310382 3.874656
vn -0.0000 1.0000 -0.0000
vn -0.0000 -0.0000 1.0000
vn -1.0000 -0.0000 -0.0000
vn 1.0000 -0.0000 -0.0000
vn -0.0000 -0.0000 -1.0000
vn -0.0000 -1.0000 -0.0000
vn 0.9901 -0.1402 -0.0000
vn -0.9901 -0.1402 -0.0000
vt 0.843750 0.734375
vt 0.875000 0.734375
vt 0.875000 0.750000
vt 0.843750 0.750000
vt 0.375000 0.968750
vt 0.625000 0.968750
vt 0.625000 1.000000
vt 0.375000 1.000000
vt 0.375000 0.234375
vt 0.625000 0.234375
vt 0.625000 0.250000
vt 0.375000 0.250000
vt 0.375000 0.015625
vt 0.375000 0.031250
vt 0.375000 0.734375
vt 0.625000 0.734375
vt 0.625000 0.750000
vt 0.375000 0.750000
vt 0.375000 0.468750
vt 0.625000 0.468750
vt 0.625000 0.500000
vt 0.375000 0.500000
vt 0.375000 0.562500
vt 0.625000 0.562500
vt 0.625000 0.625000
vt 0.375000 0.625000
vt 0.343750 0.562500
vt 0.343750 0.625000
vt 0.375000 0.062500
vt 0.625000 0.062500
vt 0.625000 0.125000
vt 0.375000 0.125000
vt 0.843750 0.562500
vt 0.875000 0.562500
vt 0.875000 0.625000
vt 0.843750 0.625000
vt 0.625000 0.031250
vt 0.625000 0.687500
vt 0.375000 0.687500
vt 0.343750 0.687500
vt 0.875000 0.687500
vt 0.843750 0.687500
vt 0.625000 0.015625
vt 0.625000 0.718750
vt 0.375000 0.718750
vt 0.343750 0.718750
vt 0.875000 0.718750
vt 0.843750 0.718750
vt 0.843750 0.531250
vt 0.875000 0.531250
vt 0.343750 0.531250
vt 0.375000 0.531250
vt 0.625000 0.531250
vt 0.625000 0.187500
vt 0.375000 0.187500
vt 0.375000 0.515625
vt 0.625000 0.515625
vt 0.843750 0.515625
vt 0.875000 0.515625
vt 0.625000 0.218750
vt 0.375000 0.218750
vt 0.343750 0.734375
vt 0.343750 0.750000
vt 0.343750 0.515625
vt 0.156250 0.531250
vt 0.125000 0.531250
vt 0.375000 0.812500
vt 0.375000 0.875000
vt 0.375000 0.312500
vt 0.375000 0.375000
vt 0.187500 0.718750
vt 0.250000 0.718750
vt 0.312500 0.531250
vt 0.250000 0.531250
vt 0.187500 0.515625
vt 0.250000 0.515625
vt 0.187500 0.531250
vt 0.187500 0.734375
vt 0.250000 0.734375
vt 0.250000 0.750000
vt 0.187500 0.750000
vt 0.250000 0.562500
vt 0.187500 0.562500
vt 0.187500 0.687500
vt 0.250000 0.687500
vt 0.187500 0.625000
vt 0.250000 0.625000
vt 0.656250 0.718750
vt 0.656250 0.687500
vt 0.625000 0.312500
vt 0.625000 0.375000
vt 0.625000 0.812500
vt 0.625000 0.875000
vt 0.687500 0.734375
vt 0.750000 0.734375
vt 0.750000 0.750000
vt 0.687500 0.750000
vt 0.375000 0.281250
vt 0.625000 0.281250
vt 0.156250 0.562500
vt 0.156250 0.625000
vt 0.156250 0.687500
vt 0.156250 0.718750
vt 0.156250 0.734375
vt 0.156250 0.750000
vt 0.156250 0.515625
vt 0.375000 0.937500
vt 0.812500 0.734375
vt 0.750000 0.515625
vt 0.812500 0.515625
vt 0.656250 0.562500
vt 0.656250 0.531250
vt 0.656250 0.734375
vt 0.625000 0.937500
vt 0.812500 0.750000
vt 0.125000 0.718750
vt 0.125000 0.515625
vt 0.125000 0.734375
vt 0.125000 0.750000
vt 0.125000 0.562500
vt 0.125000 0.687500
vt 0.125000 0.625000
vt 0.656250 0.515625
vt 0.656250 0.750000
vt 0.375000 0.781250
vt 0.625000 0.781250
vt 0.687500 0.515625
vt 0.656250 0.625000
vt 0.375000 0.437500
vt 0.312500 0.718750
vt 0.312500 0.515625
vt 0.312500 0.734375
vt 0.312500 0.750000
vt 0.312500 0.562500
vt 0.312500 0.687500
vt 0.312500 0.625000
vt 0.625000 0.437500
vt 0.312500 0.500000
vt 0.343750 0.500000
vt 0.656250 0.500000
vt 0.250000 0.500000
vt 0.687500 0.500000
vt 0.812500 0.500000
vt 0.843750 0.500000
vt 0.125000 0.500000
vt 0.156250 0.500000
vt 0.750000 0.500000
vt 0.187500 0.500000
vt 0.875000 0.500000
vt 0.375000 0.000000
vt 0.625000 0.000000
vt 0.750000 0.531250
vt 0.687500 0.531250
vt 0.750000 0.562500
vt 0.687500 0.562500
vt 0.687500 0.687500
vt 0.750000 0.687500
vt 0.750000 0.718750
vt 0.687500 0.718750
vt 0.687500 0.625000
vt 0.750000 0.625000
vt 0.812500 0.531250
vt 0.812500 0.562500
vt 0.812500 0.687500
vt 0.812500 0.718750
vt 0.812500 0.625000
s 0
usemtl Material
f 139/1/1 130/2/1 7/3/1 64/4/1
f 73/5/2 64/6/2 7/7/2 8/8/2
f 114/9/3 112/10/3 5/11/3 6/12/3
f 128/13/3 17/14/3 29/14/3 132/13/3
f 131/15/4 129/16/4 3/17/4 4/18/4
f 102/19/5 95/20/5 1/21/5 2/22/5
f 22/23/4 24/24/4 10/25/4 12/26/4
f 107/27/6 22/23/6 12/26/6 104/28/6
f 13/29/3 15/30/3 11/31/3 9/32/3
f 78/33/1 21/34/1 11/35/1 75/36/1
f 17/14/3 19/37/3 15/30/3 13/29/3
f 12/26/4 10/25/4 14/38/4 16/39/4
f 104/28/6 12/26/6 16/39/6 105/40/6
f 75/36/1 11/35/1 15/41/1 76/42/1
f 128/13/3 130/43/3 19/37/3 17/14/3
f 16/39/4 14/38/4 18/44/4 20/45/4
f 105/40/6 16/39/6 20/45/6 106/46/6
f 76/42/1 15/41/1 19/47/1 77/48/1
f 79/49/1 25/50/1 21/34/1 78/33/1
f 108/51/6 26/52/6 22/23/6 107/27/6
f 26/52/4 28/53/4 24/24/4 22/23/4
f 9/32/3 11/31/3 21/54/3 23/55/3
f 113/56/4 115/57/4 28/53/4 26/52/4
f 114/9/3 6/12/3 32/12/3 117/9/3
f 123/58/1 112/59/1 25/50/1 79/49/1
f 23/55/3 21/54/3 25/60/3 27/61/3
f 143/62/6 133/15/6 33/18/6 101/63/6
f 127/64/6 116/56/6 34/52/6 111/51/6
f 113/56/4 26/52/4 34/52/4 116/56/4
f 131/15/4 4/18/4 33/18/4 133/15/4
f 69/65/2 27/66/2 36/66/2 72/65/2
f 106/46/5 20/45/5 35/45/5 110/46/5
f 102/19/5 2/22/5 31/22/5 109/19/5
f 73/5/2 8/8/2 30/8/2 80/5/2
f 81/67/2 39/68/2 47/68/2 83/67/2
f 50/69/5 37/70/5 46/70/5 57/69/5
f 54/71/5 43/72/5 48/72/5 58/71/5
f 90/73/2 45/74/2 49/74/2 93/73/2
f 120/75/6 118/76/6 49/74/6 59/77/6
f 136/78/6 134/79/6 47/80/6 62/81/6
f 56/77/6 45/74/6 44/82/6 55/83/6
f 53/84/6 42/85/6 43/72/6 54/71/6
f 52/86/6 41/87/6 42/85/6 53/84/6
f 98/88/3 97/89/3 169/89/3 170/88/3
f 55/83/6 44/82/6 41/87/6 52/86/6
f 50/69/5 61/90/5 40/91/5 37/70/5
f 81/67/2 85/92/2 38/93/2 39/68/2
f 140/94/1 135/95/1 38/96/1 85/97/1
f 63/98/5 74/99/5 61/90/5 50/69/5
f 68/100/6 55/83/6 52/86/6 65/101/6
f 65/101/6 52/86/6 53/84/6 66/102/6
f 66/102/6 53/84/6 54/71/6 67/103/6
f 69/65/6 56/77/6 55/83/6 68/100/6
f 138/104/7 136/78/7 62/81/7 80/105/7
f 122/106/7 120/75/7 59/77/7 72/65/7
f 67/103/5 54/71/5 58/71/5 71/103/5
f 63/98/5 50/69/5 57/69/5 70/98/5
f 39/68/2 60/107/2 62/107/2 47/68/2
f 45/74/2 56/77/2 59/77/2 49/74/2
f 139/1/5 137/108/5 175/108/5 176/1/5
f 119/109/2 121/110/2 160/110/2 154/109/2
f 99/111/3 100/112/3 172/112/3 171/111/3
f 140/94/5 142/113/5 178/113/5 177/94/5
f 78/33/4 75/36/4 155/36/4 158/33/4
f 39/68/2 38/93/2 51/114/2 60/107/2
f 135/95/1 137/108/1 51/115/1 38/96/1
f 6/12/5 63/98/5 70/98/5 32/12/5
f 17/116/5 67/103/5 71/103/5 29/116/5
f 117/117/6 122/106/6 72/65/6 36/66/6
f 132/118/6 138/104/6 80/105/6 30/119/6
f 27/66/6 69/65/6 68/100/6 23/120/6
f 13/121/6 66/102/6 67/103/6 17/116/6
f 9/122/6 65/101/6 66/102/6 13/121/6
f 23/120/6 68/100/6 65/101/6 9/122/6
f 6/12/5 5/11/5 74/99/5 63/98/5
f 60/107/2 73/5/2 80/5/2 62/107/2
f 56/77/2 69/65/2 72/65/2 59/77/2
f 100/112/3 126/123/3 173/123/3 172/112/3
f 77/48/4 139/1/4 176/1/4 157/48/4
f 75/36/4 76/42/4 156/42/4 155/36/4
f 121/110/2 123/58/2 161/58/2 160/110/2
f 76/42/4 77/48/4 157/48/4 156/42/4
f 60/107/2 51/114/2 64/6/2 73/5/2
f 137/108/1 139/1/1 64/4/1 51/115/1
f 142/113/1 140/94/1 85/97/1 103/124/1
f 94/125/2 103/126/2 85/92/2 81/67/2
f 126/123/2 124/127/2 167/127/2 173/123/2
f 135/95/5 140/94/5 177/94/5 174/95/5
f 79/49/4 78/33/4 158/33/4 159/49/4
f 96/128/3 99/111/3 171/111/3 168/128/3
f 123/58/4 79/49/4 159/49/4 161/58/4
f 108/51/2 90/73/2 93/73/2 111/51/2
f 94/125/2 81/67/2 83/67/2 101/125/2
f 37/70/5 84/129/5 91/129/5 46/70/5
f 43/72/5 88/130/5 92/130/5 48/72/5
f 118/76/6 125/131/6 93/73/6 49/74/6
f 134/79/6 141/132/6 83/133/6 47/80/6
f 45/74/6 90/73/6 89/134/6 44/82/6
f 42/85/6 87/135/6 88/130/6 43/72/6
f 41/87/6 86/136/6 87/135/6 42/85/6
f 44/82/6 89/134/6 86/136/6 41/87/6
f 37/70/5 40/91/5 82/137/5 84/129/5
f 4/18/2 94/125/2 101/125/2 33/18/2
f 26/52/2 108/51/2 111/51/2 34/52/2
f 115/57/1 126/123/1 100/112/1 28/53/1
f 28/53/1 100/112/1 99/111/1 24/24/1
f 14/38/1 97/89/1 98/88/1 18/44/1
f 10/25/1 96/128/1 97/89/1 14/38/1
f 24/24/1 99/111/1 96/128/1 10/25/1
f 4/18/2 3/17/2 103/126/2 94/125/2
f 129/16/1 142/113/1 103/124/1 3/17/1
f 84/129/5 102/19/5 109/19/5 91/129/5
f 88/130/5 106/46/5 110/46/5 92/130/5
f 125/131/8 127/64/8 111/51/8 93/73/8
f 141/132/8 143/62/8 101/63/8 83/133/8
f 90/73/6 108/51/6 107/27/6 89/134/6
f 87/135/6 105/40/6 106/46/6 88/130/6
f 86/136/6 104/28/6 105/40/6 87/135/6
f 89/134/6 107/27/6 104/28/6 86/136/6
f 84/129/5 82/137/5 95/20/5 102/19/5
f 91/138/8 109/139/8 127/64/8 125/131/8
f 1/21/1 95/140/1 126/123/1 115/57/1
f 46/141/6 91/138/6 125/131/6 118/76/6
f 95/140/1 82/142/1 124/127/1 126/123/1
f 61/143/1 74/144/1 123/58/1 121/110/1
f 32/145/6 70/146/6 122/106/6 117/117/6
f 40/147/1 61/143/1 121/110/1 119/109/1
f 70/146/7 57/148/7 120/75/7 122/106/7
f 82/142/1 40/147/1 119/109/1 124/127/1
f 57/148/6 46/141/6 118/76/6 120/75/6
f 2/22/4 113/56/4 116/56/4 31/22/4
f 109/139/6 31/22/6 116/56/6 127/64/6
f 74/144/1 5/149/1 112/59/1 123/58/1
f 27/61/3 114/9/3 117/9/3 36/61/3
f 2/22/4 1/21/4 115/57/4 113/56/4
f 27/61/3 25/60/3 112/10/3 114/9/3
f 92/130/8 110/46/8 143/62/8 141/132/8
f 18/44/1 98/88/1 142/113/1 129/16/1
f 48/72/6 92/130/6 141/132/6 134/79/6
f 137/108/5 135/95/5 174/95/5 175/108/5
f 97/89/3 96/128/3 168/128/3 169/89/3
f 29/116/6 71/103/6 138/104/6 132/118/6
f 124/127/2 119/109/2 154/109/2 167/127/2
f 71/103/7 58/71/7 136/78/7 138/104/7
f 142/113/3 98/88/3 170/88/3 178/113/3
f 58/71/6 48/72/6 134/79/6 136/78/6
f 20/45/4 131/15/4 133/15/4 35/45/4
f 110/46/6 35/45/6 133/15/6 143/62/6
f 8/150/3 7/151/3 130/43/3 128/13/3
f 20/45/4 18/44/4 129/16/4 131/15/4
f 8/150/3 128/13/3 132/13/3 30/150/3
f 77/48/1 19/47/1 130/2/1 139/1/1
f 167/127/1 154/109/1 153/152/1 166/153/1
f 166/153/1 153/152/1 151/154/1 165/155/1
f 163/156/1 147/157/1 149/158/1 164/159/1
f 162/160/1 145/161/1 147/157/1 163/156/1
f 165/155/1 151/154/1 145/161/1 162/160/1
f 154/109/1 160/110/1 152/162/1 153/152/1
f 153/152/1 152/162/1 150/163/1 151/154/1
f 147/157/1 146/164/1 148/165/1 149/158/1
f 145/161/1 144/166/1 146/164/1 147/157/1
f 151/154/1 150/163/1 144/166/1 145/161/1
f 160/110/1 161/58/1 159/49/1 152/162/1
f 152/162/1 159/49/1 158/33/1 150/163/1
f 146/164/1 156/42/1 157/48/1 148/165/1
f 144/166/1 155/36/1 156/42/1 146/164/1
f 150/163/1 158/33/1 155/36/1 144/166/1
f 171/111/1 165/155/1 162/160/1 168/128/1
f 168/128/1 162/160/1 163/156/1 169/89/1
f 169/89/1 163/156/1 164/159/1 170/88/1
f 172/112/1 166/153/1 165/155/1 171/111/1
f 173/123/1 167/127/1 166/153/1 172/112/1
f 170/88/1 164/159/1 177/94/1 178/113/1
f 148/165/1 157/48/1 176/1/1 175/108/1
f 149/158/1 148/165/1 175/108/1 174/95/1
f 164/159/1 149/158/1 174/95/1 177/94/1
