# Blender 5.1.0
# www.blender.org
mtllib perpStandSeprate.mtl
o MainBase
v 1.000000 1.000000 -1.000000
v 1.000000 -1.000000 -1.000000
v 1.000000 1.000000 1.000000
v 1.000000 -1.000000 1.000000
v -1.000000 1.000000 -1.000000
v -1.000000 -1.000000 -1.000000
v -1.000000 1.000000 1.000000
v -1.000000 -1.000000 1.000000
v -1.000000 0.000000 -1.000000
v 1.000000 0.000000 1.000000
v -1.000000 0.000000 1.000000
v 1.000000 0.000000 -1.000000
v 1.000000 1.088176 1.000000
v 0.728936 1.359240 0.728936
v -0.728936 1.359240 0.728936
v -1.000000 1.088176 1.000000
v 1.000000 1.088176 -1.000000
v 0.728936 1.359240 -0.728936
v -0.728936 1.359240 -0.728936
v -1.000000 1.088176 -1.000000
v -1.000000 0.500000 1.000000
v 1.000000 0.500000 1.000000
v 1.000000 0.500000 -1.000000
v -1.000000 0.500000 -1.000000
v 1.000000 -0.500000 -1.000000
v 1.000000 -0.500000 1.000000
v -1.000000 -0.500000 -1.000000
v -1.000000 -0.500000 1.000000
v 1.000000 0.250000 1.000000
v 1.000000 0.250000 -1.000000
v -1.000000 0.250000 -1.000000
v -1.000000 0.250000 1.000000
v -1.000000 -0.250000 1.000000
v 1.000000 -0.250000 -1.000000
v 1.000000 -0.250000 1.000000
v -1.000000 -0.250000 -1.000000
vn 1.0000 -0.0000 -0.0000
vn -0.0000 -0.0000 1.0000
vn -1.0000 -0.0000 -0.0000
vn -0.0000 -1.0000 -0.0000
vn -0.0000 -0.0000 -1.0000
vn -0.0000 0.7071 0.7071
vn 0.7071 0.7071 -0.0000
vn -0.7071 0.7071 -0.0000
vn -0.0000 0.7071 -0.7071
vn -0.0000 1.0000 -0.0000
vt 0.468750 0.500000
vt 0.500000 0.500000
vt 0.500000 0.750000
vt 0.468750 0.750000
vt 0.562500 0.750000
vt 0.625000 0.750000
vt 0.625000 1.000000
vt 0.562500 1.000000
vt 0.562500 0.000000
vt 0.625000 0.000000
vt 0.625000 0.250000
vt 0.562500 0.250000
vt 0.125000 0.500000
vt 0.375000 0.500000
vt 0.375000 0.750000
vt 0.125000 0.750000
vt 0.562500 0.500000
vt 0.625000 0.500000
vt 0.468750 0.250000
vt 0.500000 0.250000
vt 0.531250 0.250000
vt 0.531250 0.500000
vt 0.500000 1.000000
vt 0.468750 1.000000
vt 0.468750 0.000000
vt 0.500000 0.000000
vt 0.658883 0.716117
vt 0.841117 0.716117
vt 0.875000 0.750000
vt 0.658883 0.533883
vt 0.841117 0.533883
vt 0.875000 0.500000
vt 0.531250 0.750000
vt 0.531250 0.000000
vt 0.531250 1.000000
vt 0.375000 0.000000
vt 0.437500 0.000000
vt 0.437500 0.250000
vt 0.375000 0.250000
vt 0.437500 0.750000
vt 0.437500 1.000000
vt 0.375000 1.000000
vt 0.437500 0.500000
s 0
usemtl mainColor
f 34/1/1 12/2/1 10/3/1 35/4/1
f 22/5/2 3/6/2 7/7/2 21/8/2
f 21/9/3 7/10/3 5/11/3 24/12/3
f 6/13/4 2/14/4 4/15/4 8/16/4
f 23/17/1 1/18/1 3/6/1 22/5/1
f 24/12/5 5/11/5 1/18/5 23/17/5
f 36/19/5 9/20/5 12/2/5 34/1/5
f 31/21/5 24/12/5 23/17/5 30/22/5
f 35/4/2 10/3/2 11/23/2 33/24/2
f 33/25/3 11/26/3 9/20/3 36/19/3
f 14/27/6 15/28/6 16/29/6 13/6/6
f 18/30/7 14/27/7 13/6/7 17/18/7
f 15/28/8 19/31/8 20/32/8 16/29/8
f 19/31/9 18/30/9 17/18/9 20/32/9
f 7/7/2 3/6/2 13/6/2 16/7/2
f 18/30/10 19/31/10 15/28/10 14/27/10
f 3/6/1 1/18/1 17/18/1 13/6/1
f 5/11/3 7/10/3 16/10/3 20/11/3
f 1/18/5 5/11/5 20/11/5 17/18/5
f 30/22/1 23/17/1 22/5/1 29/33/1
f 32/34/3 21/9/3 24/12/3 31/21/3
f 29/33/2 22/5/2 21/8/2 32/35/2
f 8/36/3 28/37/3 27/38/3 6/39/3
f 4/15/2 26/40/2 28/41/2 8/42/2
f 6/39/5 27/38/5 25/43/5 2/14/5
f 2/14/1 25/43/1 26/40/1 4/15/1
f 10/3/2 29/33/2 32/35/2 11/23/2
f 11/26/3 32/34/3 31/21/3 9/20/3
f 12/2/1 30/22/1 29/33/1 10/3/1
f 9/20/5 31/21/5 30/22/5 12/2/5
f 28/37/3 33/25/3 36/19/3 27/38/3
f 26/40/2 35/4/2 33/24/2 28/41/2
f 27/38/5 36/19/5 34/1/5 25/43/5
f 25/43/1 34/1/1 35/4/1 26/40/1
o definingEdge
v 1.156967 -0.283439 -1.098914
v 1.156967 -0.283439 1.164740
v -1.132947 -0.283439 -1.098914
v -1.132947 -0.283439 1.164740
v 1.156967 0.671481 -1.098914
v 1.156967 0.671481 1.164740
v -1.132947 0.671481 -1.098914
v -1.132947 0.671481 1.164740
vn -0.0000 -1.0000 -0.0000
vn -1.0000 -0.0000 -0.0000
vn -0.0000 1.0000 -0.0000
vn 1.0000 -0.0000 -0.0000
vn -0.0000 -0.0000 -1.0000
vn -0.0000 -0.0000 1.0000
vt 0.375000 0.000000
vt 0.625000 0.000000
vt 0.625000 0.250000
vt 0.375000 0.250000
vt 0.625000 0.500000
vt 0.375000 0.500000
vt 0.625000 0.750000
vt 0.375000 0.750000
vt 0.625000 1.000000
vt 0.375000 1.000000
vt 0.125000 0.500000
vt 0.125000 0.750000
vt 0.875000 0.500000
vt 0.875000 0.750000
s 0
usemtl accentColor
f 37/44/11 38/45/11 40/46/11 39/47/11
f 39/47/12 40/46/12 44/48/12 43/49/12
f 43/49/13 44/48/13 42/50/13 41/51/13
f 41/51/14 42/50/14 38/52/14 37/53/14
f 39/54/15 43/49/15 41/51/15 37/55/15
f 44/48/16 40/56/16 38/57/16 42/50/16
